<svg xmlns="http://www.w3.org/2000/svg" viewBox="0 0 980 980" fill="none" shape-rendering="auto"><metadata xmlns:rdf="http://www.w3.org/1999/02/22-rdf-syntax-ns#" xmlns:xsi="http://www.w3.org/2001/XMLSchema-instance" xmlns:dc="http://purl.org/dc/elements/1.1/" xmlns:dcterms="http://purl.org/dc/terms/"><rdf:RDF><rdf:Description><dc:title>Lorelei</dc:title><dc:creator>Lisa Wischofsky</dc:creator><dc:source xsi:type="dcterms:URI">https://www.figma.com/community/file/1198749693280469639</dc:source><dcterms:license xsi:type="dcterms:URI">https://creativecommons.org/publicdomain/zero/1.0/</dcterms:license><dc:rights>Remix of „Lorelei” (https://www.figma.com/community/file/1198749693280469639) by „Lisa Wischofsky”, licensed under „CC0 1.0” (https://creativecommons.org/publicdomain/zero/1.0/)</dc:rights></rdf:Description></rdf:RDF></metadata><mask id="viewboxMask"><rect width="980" height="980" rx="0" ry="0" x="0" y="0" fill="#fff" /></mask><g mask="url(#viewboxMask)"><g transform="translate(10 -60)"><path d="M458 198c21-1 43 5 61 15l17 11c8-5 17-7 27-7 15 0 30 5 43 14 11 9 20 22 25 35 5-1 10-3 15-2 8 1 17 5 24 10 8 6 15 14 18 23 2 8 2 16 0 23 5 0 10 0 14 3 7 3 10 9 12 16 3 12 1 23-1 35-2 8-4 16-9 23-5 6-12 11-20 12-3 0-6 0-9-2-5-2-9-1-13-5-6-5-7-13-6-21 1-16 5-33 15-45l-10-2c-4-3-7-7-9-11-7-11-13-24-17-37 0 10-2 19-8 27-3 4-8 7-13 6-3 0-5-4-6-6l-11-16c-7-7-14-14-23-20 4 11 5 24 2 35-1 4-4 9-8 11-3 1-5-2-7-4-8-6-14-14-21-20l-14-9c-18-10-36-16-56-20l-20-4c9 8 17 17 21 28 1 5 3 11 1 16-2 2-5 3-8 3l-16-3a214 214 0 0 0-105 1c9 2 17 4 25 8 7 4 15 9 19 16 1 2 3 6 1 8-6 5-15 7-23 9l-27 9c-15 7-30 17-44 27 11-2 22-3 33-2s23 3 30 12c1 4-3 6-5 8-17 12-37 23-52 38l-19 22 15-1c9 0 19 2 27 7 3 2 8 6 8 10-3 8-10 14-17 19-11 7-21 14-33 19 0 6 0 13-2 19-4 9-8 17-16 22-3 3-8 3-12 2-5-2-9-7-11-11-7-11-10-26-7-40 0-5 3-10 5-15l-4-6c-8-15-11-33-7-50 3-11 9-21 17-28-5-13-8-26-5-40 2-15 8-30 19-41 7-7 16-12 26-15-1-6-2-11-1-16 1-14 8-26 18-36 7-8 17-14 27-19 20-10 44-10 65-6 5-11 12-20 21-27 13-10 28-15 44-15ZM310 619c10 2 18 8 24 16 5 9 9 18 12 28 5 3 11 6 15 11s6 11 7 17c2 7 4 14 4 21-1 8-4 16-11 21-4 4-9 5-14 4-7-2-13-7-18-13-4 6-9 11-16 12-9 3-18-1-24-6-10-7-16-19-19-31l-3-28 2-22c2-7 6-13 11-18 4-5 9-8 14-11 5-2 11-2 16-1Z" fill="#000000"/><path d="M528 244c41 6 80 22 113 47 28 21 50 49 65 81 13 28 20 60 19 91-1 15-3 30-8 44h-2l1-21c1-30-2-59-13-87-10-30-28-57-50-79-42-40-98-62-156-63a243 243 0 0 0-196 94 207 207 0 0 0-40 139l2 25c8 0 19 0 25 7l-3 3-17 1c-12 1-24 5-33 13a64 64 0 0 0-17 39c-5 32 12 65 39 83 16 10 36 15 55 9 4-2 9-5 14-3 3 1 4 4 5 7a251 251 0 0 0 90 100c8 7 18 13 28 18 18 8 38 14 57 19l32 8c5 1 9 1 13 3l-4 1c-25 2-48-3-72-10-12-3-23-7-34-12a306 306 0 0 1-84-63l2 28c1 17 0 35-6 52-4 12-11 24-19 34-10 10-22 19-34 26-10 7-21 14-32 18l-16 5 9-9 31-20 22-17a95 95 0 0 0 32-56c2-14 2-28 2-43v-27c-10-14-22-29-27-46-17 8-38 7-55-1-17-7-32-19-43-33-12-17-19-36-21-56s2-40 15-56c9-10 22-18 35-21-4-14-6-29-6-44a234 234 0 0 1 83-173 249 249 0 0 1 199-55Z" fill="#000"/><path d="M653 320c22 22 40 49 50 79 11 28 14 57 13 87l-1 21-5 15-2 13 2 56c0 21 1 42-1 63l-3 47c-2 16-7 31-14 45-11 18-26 33-44 44-13 8-27 12-41 16l-38 11-17 3c0 1 1 2 3 2 8 5 17 5 26 4-3 7-4 14-2 22 3 7 11 11 17 14 12 6 24 7 36 9 7 6 14 14 16 24 2 8 2 16-2 23-5 10-14 18-24 23-13 8-27 14-42 18a468 468 0 0 1-222-1c-17-4-33-9-48-17-12-6-23-13-32-22-5-7-9-14-10-23 11-4 22-11 32-18 12-7 24-16 34-26 8-10 15-22 19-34 6-17 7-35 6-52l-2-28 22 23c19 15 40 30 62 40 11 5 22 9 34 12 24 7 47 12 72 10l4-1c-4-2-8-2-13-3l-32-8c-19-5-39-11-57-19l-29-17c-11-9-23-17-33-27a251 251 0 0 1-56-74c-1-3-2-6-5-7-5-2-10 1-14 3-19 6-39 1-55-9a88 88 0 0 1-39-83c1-14 7-28 17-39 9-8 21-12 33-13l17-1 3-3c-6-7-17-7-25-7l-2-25a207 207 0 0 1 40-139 243 243 0 0 1 196-94c58 1 114 23 156 63Z" fill="#ffffff"/><path d="M710 522c3 0 3 4 4 6 3 11 4 23 5 34l2 21c1 22 2 43 1 65-1 21-1 44-5 65a136 136 0 0 1-80 99c-15 7-31 11-48 13v15c1 3 3 4 5 6 12 6 23 8 36 11 12 3 24 5 36 11-3 3-7 4-11 4-7 1-15-1-23-1-12-2-24-3-36-9-6-3-14-7-17-14-2-8-1-15 2-22-9 1-18 1-26-4-2 0-3-1-3-2l17-3 38-11c14-4 28-8 41-16 18-11 33-26 44-44 7-14 12-29 14-45l3-47c2-21 1-42 1-63l-2-56 2-13ZM252 549c8 0 17 1 23 7 5 4 10 9 12 15 1 3 0 6-2 8l-13 8c-7 6-7 19 0 25 6 5 14 8 21 11 2 0 5 1 6 3-1 2-3 3-5 3-10 0-20-3-28-9-5-3-8-8-9-13-2-8-2-17 4-24 4-6 11-9 18-12-4-5-7-11-14-13-7-3-15-3-22-5l9-4Z" fill="#000"/><path d="M683 467c8 6 11 15 12 25 1 5 1 12-2 16-2 5-10 5-12 0-3-4-2-10-3-14-1-5-3-11-7-14-4-2-8-1-11 0 9 13 9 30 4 45-2 6-5 12-9 17-4 3-8 6-12 7-4 2-10 1-14-2-5-5-7-11-7-17-1 4-2 9-6 12-2-2-3-3-3-6-1-7 0-14 2-20 4-14 11-26 20-36 7-7 15-13 25-16 8-2 16-1 23 3ZM479 473c18 7 33 21 40 40 3 7 5 15 4 22 0 2-1 5-3 4-3-2-5-6-6-9-5-9-10-17-17-25-8-9-18-16-29-19 6 10 8 22 8 34-1 11-5 22-12 30-5 6-12 11-20 10-6 0-11-1-15-5-9-7-13-17-15-28-1-8 0-15 2-22l-7 8c-3 4-10 4-13 0s-2-9 1-12c9-15 24-27 41-31 13-3 28-2 41 3Z" fill="#000000"/><path d="M503 394c7 0 14 2 19 6 4 2 7 4 8 8 1 2 0 5-2 6-5 1-10-2-14-3l-9-1c-13-1-26 1-39 4a169 169 0 0 0-60 31c-4 2-9 5-14 4-3 0-3-4-2-7 1-6 7-11 12-16 10-9 23-15 35-20 20-9 44-14 66-12ZM659 396c7-2 14-1 20 3 4 3 8 6 9 11 1 3 1 6-2 7s-7 1-10-1c-5-3-9-6-15-6-5 0-10 1-14 3-8 4-16 11-20 19l-6 9h-3v-6c2-8 7-16 13-22 7-8 17-15 28-17Z" fill="#000000"/><path d="m591 528 2 2 7 22c4 8 10 15 15 23 4 6 6 13 5 20-1 6-4 12-9 16-7 7-16 12-25 16-5 3-11 4-17 2l5-4c11-9 25-14 36-24 2-2 4-6 4-9-1-7-5-11-8-16-5-9-10-16-13-25-2-7-4-16-2-23Z" fill="#000000"/><path d="M632 656c-5 5-12 9-18 13-11 8-23 15-36 20-3 1-6 3-10 3l-17-2h-23l-23-2c-6 0-11-4-15-9l-13 1c-3-1-6-4-4-7s7-5 10-7c5-1 11-2 16 1 3 2 4 6 6 8l5 1c15 1 31 1 46 4 5 1 10 4 15 2 5-1 10-4 14-6 13-6 25-13 38-18 3-1 6-3 9-2Z" fill="#000000"/><path d="M484 200c21 4 41 14 57 28 8-7 18-10 29-10a75 75 0 0 1 63 53c5-5 13-5 19-4 18 3 32 17 37 34 1 7 1 14-1 20-3 6-8 11-14 14-5 1-11 0-16-3l-7-9c-7-12-12-24-16-37 0 6 0 12-3 18-2 6-5 11-10 14-3 2-7 2-10 0l-5-6-10-15c-7-7-14-14-23-20 3 11 5 22 2 33-1 4-2 8-5 11l-6 2-21-20c-11-10-24-16-37-22-15-6-31-11-47-13l-10-2c9 8 17 16 20 27 2 5 4 12 2 17-2 2-5 3-8 3l-15-3a218 218 0 0 0-106 1c11 2 20 5 29 11 6 3 12 7 15 13 1 2 3 6 1 8-6 5-15 7-23 9l-27 9c-15 7-30 17-44 27 11-2 22-3 33-2s23 3 30 12c1 4-3 7-5 9-16 10-34 20-48 33-9 8-16 17-23 26 11-2 22-2 33 2 6 2 12 5 15 10 2 2 2 4 1 7-5 10-15 16-25 21-10 7-21 13-33 17-5 2-11 3-16 3-4 0-8-3-10-6-7-5-10-14-8-22 1-5 4-9 7-13-11-8-18-21-18-35 0-9 2-18 7-25 5-9 12-15 20-21-4-5-6-10-8-17-3-10-4-22-1-32 3-13 12-24 23-30 10-7 21-11 33-13v-8c-3-6-3-13-2-20 1-12 8-23 18-31 13-10 29-14 45-15 14-1 29 0 42 4l7-16c6-11 16-20 28-24 14-5 30-5 45-2Z" fill="#000000"/></g><g transform="translate(10 -60)"></g></g></svg>