<svg xmlns="http://www.w3.org/2000/svg" viewBox="0 0 980 980" fill="none" shape-rendering="auto"><metadata xmlns:rdf="http://www.w3.org/1999/02/22-rdf-syntax-ns#" xmlns:xsi="http://www.w3.org/2001/XMLSchema-instance" xmlns:dc="http://purl.org/dc/elements/1.1/" xmlns:dcterms="http://purl.org/dc/terms/"><rdf:RDF><rdf:Description><dc:title>Lorelei</dc:title><dc:creator>Lisa Wischofsky</dc:creator><dc:source xsi:type="dcterms:URI">https://www.figma.com/community/file/1198749693280469639</dc:source><dcterms:license xsi:type="dcterms:URI">https://creativecommons.org/publicdomain/zero/1.0/</dcterms:license><dc:rights>Remix of „Lorelei” (https://www.figma.com/community/file/1198749693280469639) by „Lisa Wischofsky”, licensed under „CC0 1.0” (https://creativecommons.org/publicdomain/zero/1.0/)</dc:rights></rdf:Description></rdf:RDF></metadata><mask id="viewboxMask"><rect width="980" height="980" rx="0" ry="0" x="0" y="0" fill="#fff" /></mask><g mask="url(#viewboxMask)"><g transform="translate(10 -60)"><path d="M501 141c6-1 11 0 17 1 7 2 12 7 18 11 6 6 9 13 10 21 2-6 3-13 7-18 4-4 9-6 14-7 6-2 13-3 20-3 7 1 14 2 19 6 4 4 5 9 6 14l4 22c5-6 10-13 16-18 6-6 15-8 23-8 9 0 15 3 23 7 6 3 12 11 11 18 0 6-2 11-3 17 4-2 8-3 12-2 7 1 13 5 16 11 4 14 1 29-5 42 7-1 14 0 20 3 5 2 9 6 11 11 1 6-1 12-5 16-5 8-12 15-20 21 3 3 7 6 9 11s2 12-3 16c-3 4-8 5-12 6-13 4-26 6-39 4s-25-7-36-13l-5-6c-17 3-36 3-54 4-23 1-45 0-68-1l-51-4-43-4c-3 0-5 2-8 3-13 7-26 12-38 21l-14 13c-2 5-1 10 0 14 1 7 3 14 0 20l-11 13c-9 13-16 28-18 43-2 20 0 39 2 58 1 5-1 10-2 15l-7 8c4-1 9-3 12 1 0 4-5 7-8 9l10-2 6 2c-1 7-7 9-12 13 3 3 5 4 3 8-5 6-11 10-18 13l-7 2c-2-1-2-4-3-6l-22 6c-3 1-7 2-10 1l-5-6a203 203 0 0 1-27-123c1-23 6-46 14-68l-7-8c-4-5-5-12-7-17-3-9-4-18-1-27 2-6 6-11 11-16-3-3-7-6-9-10-3-7-2-14-2-21 1-6 3-13 8-17 5-3 11-2 17-2-3-6-7-13-5-20 1-6 6-12 10-16 6-7 14-12 24-11 9 0 17 5 25 8l-3-15c0-9 2-17 7-24 5-6 12-9 20-11 15-5 33 6 38 21 1-14 10-30 24-35 5-2 10-2 15-1 2-4 5-7 8-9 9-4 19-4 28-3 5 1 9 3 13 6 7 4 10 14 15 20 1-7 2-14 6-20 3-6 10-8 16-8Z" fill="#000000"/><path d="M486 236c57-2 115 18 159 56a209 209 0 0 1 73 190c-1 4-1 8-4 12l-1-3v-33a215 215 0 0 0-172-206 235 235 0 0 0-270 153c-12 37-14 78-6 116 6-2 12-2 17-2 2 1 5 1 6 3s0 3-1 4l-12 4c-14 3-27 8-37 18a63 63 0 0 0-22 45c0 12 3 24 8 35 8 13 19 24 33 31 18 10 41 13 62 7 2-1 4-2 6-1s3 4 4 6l15 30a215 215 0 0 0 72 63c28 15 59 21 90 26 3 1 8 1 10 4 1 2 0 3-2 4l-11 1a231 231 0 0 1-147-62c5 18 8 36 8 54 0 12-2 23-6 34-5 10-11 18-19 26a196 196 0 0 1-60 43c-1-1 1-2 2-3l17-14c13-12 25-23 35-38a93 93 0 0 0 17-65l-4-39-2-10-12-17c-5-10-11-20-13-31a93 93 0 0 1-96-31 81 81 0 0 1-19-51c0-12 3-23 8-34 9-16 23-29 40-36-8-31-8-62-3-93 8-40 26-77 51-108 45-54 115-87 186-88Z" fill="#000"/><path d="M541 252a214 214 0 0 1 172 206v33c-1 5-2 10-1 15-2 2-3 3-3 5-3 18-1 37 1 55 4 29 6 59 2 88-3 28-13 56-30 79-16 21-38 34-62 43-15 6-30 9-45 13-11 2-22 4-32 8 1 2 4 1 6 2 12 1 24-1 36-2-5 8-8 17-9 26-2 10 2 19 9 26 6 7 15 11 24 14 5 2 11 3 17 3 7 9 13 18 14 30 2 12-1 24-8 34-9 14-22 23-37 30-18 9-38 15-57 18a352 352 0 0 1-192-23c-18-10-38-23-48-42-4-7-8-16-6-24 18-10 33-23 47-38 8-8 14-16 19-26 4-11 6-22 6-34 0-18-3-36-8-54a235 235 0 0 0 147 62l11-1c2-1 3-2 2-4-2-3-7-3-10-4-31-5-62-11-90-26-18-10-36-22-50-37-8-8-16-17-22-26l-15-30c-1-2-2-5-4-6s-4 0-6 1a82 82 0 0 1-95-38c-5-11-8-23-8-35 1-17 9-34 22-45 10-10 23-15 37-18l12-4c1-1 2-2 1-4s-4-2-6-3c-5 0-11 0-17 2-8-38-6-79 6-116a236 236 0 0 1 270-153Z" fill="#ffffff"/><path d="m712 506 3 3 1 13 3 45c3 20 5 40 5 60 0 16-1 32-5 47-6 28-20 56-40 76a174 174 0 0 1-88 46c-1 9-4 16-4 25-1 6 2 10 5 15 8 8 18 14 28 19l18 9c-3 3-8 1-12 2-6 0-12-1-17-3-9-3-18-7-24-14-7-7-11-16-9-26 1-9 4-18 9-26-12 1-24 3-36 2-2-1-5 0-6-2 10-4 21-6 32-8 15-4 30-7 45-13 24-9 46-22 62-43 17-23 27-51 30-79 4-29 2-59-2-88-2-18-4-37-1-55 0-2 1-3 3-5ZM262 566c6 0 12 1 15 6 2 3 2 7 1 10-3 8-9 14-11 22-1 4 0 7 3 9 7 5 16 7 24 10l-2 2h-11c-6-1-12-2-17-5-5-4-9-11-7-18 2-9 9-15 12-23-7-4-14-2-20-8 3-4 8-6 13-5Z" fill="#000"/><path d="M681 473c6 2 11 6 14 12 2 2 3 6 2 9-2 4-7 6-11 5-5-1-6-6-11-9-6-4-12-4-19-2 3 2 6 4 7 8 4 7 4 17 2 25-2 6-5 12-11 15-6 2-13 0-16-5-5-6-6-15-5-23l-11 20c-1 3-1 6-4 8-2-7 0-13 2-19 6-17 19-31 34-40 8-4 18-6 27-4ZM445 484c31-4 63 14 76 42 2 2 3 6 1 9-3-1-5-4-7-7-5-8-11-14-19-20 1 5 2 10 1 16-1 8-5 17-12 21-6 4-13 3-18 0-7-5-10-12-11-20-1-9 1-20 7-28-19 2-37 8-52 20l-7 4c-4 1-7-1-8-4-2-3-1-8 2-10 13-13 29-21 47-23Z" fill="#000000"/><path d="M494 368c5 0 9 3 11 7 8 8 15 18 20 28 2 5 4 10 3 15-1 2-2 4-4 3l-5-6c-4-8-10-15-16-22 0 4 1 10-1 13-1 4-4 6-8 6-5 0-10-4-14-7l-13-5c-2 1-4 3-6 2l-11-2-20-2-18 2c3-4 8-6 13-8 10-5 21-5 32-4 3 1 6-2 10-1 10 0 17 4 25 10l-4-19c-1-4 1-9 6-10ZM637 383c3 1 5 2 5 5 0 4-3 8-5 13 4-2 7-5 11-5 3 1 4 3 6 6 5-2 12-4 18-2 3 1 4 3 5 5-3 3-6 5-10 6-5 2-11 4-16 4-3 0-5-2-7-3l-10 6c-3 0-6-1-7-4l-1-8-8 15-4 6c-2 0-3 0-4-2-2-3 1-8 2-11 3-8 8-16 14-23 3-3 6-7 11-8Z" fill="#000000"/><path d="M594 572a37 37 0 0 1 19 29c0 9-5 18-13 22l-17 7c-4 1-6 2-9 0-2-3-1-4 1-6 6-5 15-7 21-12 3-2 5-5 5-9 0-10-5-17-7-26v-5Z" fill="#000000"/><path fill-rule="evenodd" clip-rule="evenodd" d="M622 659c1-4-5-4-7-4-15 0-30 3-45 7a441 441 0 0 0-84 36c-6 3-11 7-15 13l-2 4 5-1c5-5 12-8 18-12 0 7 0 14 4 20 3 6 9 10 15 11 9 1 19-3 26-9 11-8 18-20 24-32 3-6 3-11 3-17 16-6 33-9 49-12h1c3 0 6-1 8-4Zm-84 48c6-8 11-18 14-29l-27 10c0 7-4 14-7 21l-1-6v-1l2-12-23 10v1c2 6 4 14 9 18 4 5 10 5 16 3 7-3 13-9 17-15Z" fill="#000000"/><path d="M502 141c9 0 18 0 25 6 6 4 12 8 15 14l4 13c2-6 3-14 8-19 5-4 11-6 17-7 8-2 17-2 25-1 5 1 9 4 12 8 3 3 4 8 4 12l4 21 13-16c10-10 27-13 40-7 5 2 10 4 14 8s7 8 6 14c0 6-2 11-3 17 4-2 8-3 12-2 7 1 13 5 16 11 4 14 1 29-5 42 7-1 14 0 20 3 5 2 9 6 11 11 1 6-1 12-5 16-5 8-12 15-20 21 4 4 8 8 10 14 1 6-1 12-6 15-7 5-17 6-25 7-3 0-8 1-9-3 0-2 2-3 4-4-4-4-8-7-10-11l-5-8 1-6-7-1-20 10c-23 8-48 8-71 9-33 1-66 0-99-3l-65-6c-3 0-5 2-8 3-13 7-26 12-38 21l-14 13c-2 5-1 10 0 14 1 7 3 13 1 20l-6 6c-5 4-8 9-11 15-6 9-10 19-12 30-4 20-1 43 1 63 1 5-1 10-2 15l-7 8c4-1 9-3 12 1 0 4-5 7-8 9l10-2 6 2c-1 7-7 9-12 13l3 4c1 2 0 4-1 5-5 6-11 10-18 13-2 1-5 2-7 0s-1-5-1-7c-2 0-4 1-6-1-2-4 1-8 3-11h-6v-5l5-7c-5 2-9 3-14 1l-34-22c-2-1-5-2-6-5l-4-11a259 259 0 0 1 11-127l-7-8c-4-5-5-12-7-18-3-9-5-17-1-26 2-7 6-11 11-16-4-3-7-7-9-12-3-6-2-14-2-20 1-6 3-13 8-16s11-2 17-2c-3-6-6-12-5-19 0-6 5-12 9-16 6-8 15-13 25-12 9 0 17 5 25 8-2-5-4-10-3-15 0-9 2-17 7-24 6-8 17-12 27-12 13 0 26 9 31 22 1-15 10-30 24-35 5-2 10-2 15-1 2-4 5-7 8-9 9-4 19-4 28-3 5 1 9 3 13 6 7 4 10 14 15 20 1-7 2-14 6-20s10-8 17-8Z" fill="#000000"/></g><g transform="translate(10 -60)"></g></g></svg>