<svg xmlns="http://www.w3.org/2000/svg" viewBox="0 0 16 16" fill="none" shape-rendering="crispEdges"><metadata xmlns:rdf="http://www.w3.org/1999/02/22-rdf-syntax-ns#" xmlns:xsi="http://www.w3.org/2001/XMLSchema-instance" xmlns:dc="http://purl.org/dc/elements/1.1/" xmlns:dcterms="http://purl.org/dc/terms/"><rdf:RDF><rdf:Description><dc:title>Pixel Art</dc:title><dc:creator>DiceBear</dc:creator><dc:source xsi:type="dcterms:URI">https://www.figma.com/community/file/1198754108850888330</dc:source><dcterms:license xsi:type="dcterms:URI">https://creativecommons.org/publicdomain/zero/1.0/</dcterms:license><dc:rights>„Pixel Art” (https://www.figma.com/community/file/1198754108850888330) by „DiceBear”, licensed under „CC0 1.0” (https://creativecommons.org/publicdomain/zero/1.0/)</dc:rights></rdf:Description></rdf:RDF></metadata><mask id="viewboxMask"><rect width="16" height="16" rx="0" ry="0" x="0" y="0" fill="#fff" /></mask><g mask="url(#viewboxMask)"><path d="M4 2h8v1h1v3h1v2h-1v3h-1v1H9v1h4v1h1v2H2v-2h1v-1h4v-1H4v-1H3V8H2V6h1V3h1V2Z" fill="#b68655"/><path d="M4 2h8v1h1v3h1v2h-1v3h-1v1H4v-1H3V8H2V6h1V3h1V2Z" fill="#fff" fill-opacity=".1"/><path d="M5 13H3v1H2v2h12v-2h-1v-1h-2v1H5v-1Z" fill="#ffc425"/><path fill="#fff" fill-opacity=".3" d="M2 14h1v2H2zM6 14h1v2H6zM8 14h1v2H8zM10 14h1v2h-1zM4 13h1v3H4zM12 13h1v3h-1z"/><path d="M10 5h1v2H9V6h1V5ZM5 5h1v2H4V6h1V5Z" fill="#fff"/><path fill="#876658" d="M11 6h-1v1h1zM6 6H5v1h1z"/><path d="M7 9h2v1H7V9ZM7 10v1H6v-1h1ZM9 10v1h1v-1H9Z" fill="#c98276"/><g fill="#bd1700"><path d="M2 3h2v3H2zM12 3h2v3h-2z"/><path d="M12 3h2v3h-2z"/></g><path d="M4 0h8v1h1v1h1v3H2V2h1V1h1V0Z" fill="#2663a3"/><path fill="#fff" fill-opacity=".3" d="M13 1v1H3V1zM14 3v1H2V3z"/></g></svg>